<?xml version="1.0" encoding="utf-8"?>
<!-- Generator: Adobe Illustrator 23.0.1, SVG Export Plug-In . SVG Version: 6.00 Build 0)  -->
<svg version="1.1" id="Слой_1" xmlns="http://www.w3.org/2000/svg" xmlns:xlink="http://www.w3.org/1999/xlink" x="0px" y="0px"
	 viewBox="0 0 355.24 343.1" style="enable-background:new 0 0 355.24 343.1;" xml:space="preserve">
<style type="text/css">
	.st0{display:none;fill:#707070;}
	.st1{fill:#FFFFFF;}
</style>
<polygon class="st0" points="1871.18,1067.79 1853.19,1067.79 1850.39,1058.37 1828.67,1058.37 1825.87,1067.79 1807.79,1067.79 
	1829.32,1002.54 1849.64,1002.54 "/>
<path class="st0" d="M1853.19,1067.79l-2.8-9.41h-21.72l-2.8,9.41h-18.08l21.53-65.25h20.32l21.53,65.25H1853.19z M1832.96,1044.02
	h13.14l-6.62-22.18L1832.96,1044.02z"/>
<path class="st0" d="M1807.79,1067.79c21.13,0,42.26,0,63.38,0l-31.4-65.25L1807.79,1067.79z"/>
<g>
	<g>
		<path class="st1" d="M164.7,208.88v14.38h-38.29v-65.38h14.94v51H164.7z"/>
	</g>
	<g>
		<path class="st1" d="M269.86,198.23v25.12h-14.94v-25.12l-21.95-40.25h17l12.42,25.22l12.42-25.22h17L269.86,198.23z"/>
	</g>
	<g>
		<path class="st1" d="M211.11,76.31v65.38H199.9l-25.22-35.49v35.49h-14.94V76.31h11.21l25.22,35.49V76.31H211.11z"/>
	</g>
	<path class="st1" d="M220.02,223.29l-2.8-9.41H195.5l-2.8,9.41h-18.08l21.53-65.25h20.32l21.53,65.25H220.02z M199.79,199.52h13.14
		l-6.62-22.18L199.79,199.52z"/>
	<g>
		<path class="st1" d="M292.88,108.01c0,19.19-15.18,33.9-33.91,33.9c-18.72,0-33.9-14.71-33.9-33.9c0-15.52,9.92-28.11,23.62-32.36
			v15.8c-5.27,3.24-8.72,9.09-8.72,16.56c0,11.64,8.39,19.37,19,19.37c10.62,0,19.01-7.73,19.01-19.37c0-7.49-3.46-13.36-8.77-16.58
			V75.64C282.93,79.87,292.88,92.48,292.88,108.01z"/>
		<path class="st1" d="M258.97,96.45L258.97,96.45c-3.25,0-5.88-2.63-5.88-5.88V74.19c0-3.25,2.63-5.88,5.88-5.88l0,0
			c3.25,0,5.88,2.63,5.88,5.88v16.38C264.85,93.81,262.22,96.45,258.97,96.45z"/>
	</g>
	<path class="st1" d="M116.48,189.22c0,1.85-0.56,4.51-3.23,6.97c-1.08,0.99-4.1,2.99-7.6,5.21l-1.28,0.77l-3.13,1.87
		c-5.29,3.18-10.59,6.37-15.88,9.55c-0.81,0.49-1.63,0.98-2.44,1.47v-16.79l7.23-4.33c0.69-0.39,1.23-0.7,1.66-0.96
		c1.82-1.1,3.67-2.22,5.36-3.25c0.02-0.01,0.04-0.02,0.05-0.04c0.24-0.18,0.22-0.55-0.05-0.71L77.8,176.75
		c-0.31-0.19-0.68,0-0.68,0.39l-0.05,34.75v11.46H62.74v-38.53l0.03-17.92c0-4.26,2.96-8.09,7.44-9c2.41-0.49,4.94,0.22,7.02,1.51
		l34.99,22.08C114.9,183.17,116.48,186.07,116.48,189.22z"/>
	<g>
		<path class="st1" d="M98.16,141.49l-20.88-30.2v30.2H62.37V76.24h14.91v28.34l19.95-28.34h16.96l-22,31.79l22.93,33.46H98.16z"/>
		<path class="st1" d="M141.22,76.24v65.25H126.3V76.24H141.22z"/>
	</g>
</g>
</svg>
