<svg width="42" height="28" viewBox="0 0 42 28" fill="none" xmlns="http://www.w3.org/2000/svg">
<g clip-path="url(#clip0)">
<path d="M18.6343 25.3621V27.9835H11.6611V16.0695H14.3824V25.3621H18.6343Z" fill="white"/>
<path d="M37.7825 23.4216V27.9999H35.0615V23.4216L31.0647 16.086H34.16L36.4219 20.6815L38.6838 16.086H41.7791L37.7825 23.4216Z" fill="white"/>
<path d="M27.085 1.20428V13.1193H25.044L20.452 6.652V13.1193H17.7307V1.20536H19.7717L24.3634 7.67296V1.20536L27.085 1.20428Z" fill="white"/>
<path d="M42 6.95108C41.9986 8.10016 41.6779 9.2262 41.0737 10.2033C40.4694 11.1804 39.6055 11.9701 38.5785 12.484C37.5516 12.9979 36.402 13.2159 35.2583 13.1135C34.1147 13.0111 33.022 12.5924 32.1025 11.9042C31.183 11.216 30.473 10.2854 30.0516 9.21643C29.6303 8.1475 29.5144 6.98237 29.7168 5.85128C29.9193 4.7202 30.4321 3.66775 31.1979 2.81161C31.9638 1.95547 32.9525 1.32939 34.0535 1.00334V3.85344C33.513 4.16454 33.0676 4.61754 32.7656 5.16353C32.4636 5.70952 32.3165 6.32775 32.34 6.95135C32.34 9.07791 33.8714 10.4903 35.8088 10.4903C37.7462 10.4903 39.2793 9.07791 39.2793 6.95135C39.3037 6.32245 39.154 5.69904 38.8468 5.14984C38.5397 4.60063 38.087 4.14696 37.5386 3.83883V0.994217C38.8326 1.3591 39.9707 2.14015 40.777 3.21676C41.5834 4.29337 42.0132 5.60569 42 6.95108Z" fill="white"/>
<path d="M28.7072 27.9881L28.1979 26.2726H24.2432L23.734 27.9881H20.4412L24.362 16.0982H28.0621L31.9829 27.9881H28.7072ZM25.0241 23.6567H27.4173L26.2123 19.6139L25.0241 23.6567Z" fill="white"/>
<path d="M9.85425 21.7807C9.8527 22.0222 9.79941 22.2606 9.69797 22.4797C9.59652 22.6988 9.44928 22.8936 9.26619 23.0509C8.82449 23.3951 8.36237 23.7121 7.8824 24.0005L7.6494 24.1408L7.07954 24.4814C6.11625 25.0608 5.15224 25.6409 4.18749 26.2216C4.04013 26.3109 3.89083 26.4002 3.7432 26.4895V23.4299L5.05978 22.6407C5.18538 22.5696 5.2837 22.5131 5.36275 22.4657C5.69327 22.2653 6.03122 22.0614 6.3386 21.8734C6.34232 21.872 6.3455 21.8695 6.34768 21.8662C6.35785 21.8584 6.36592 21.8482 6.37118 21.8365C6.37644 21.8248 6.37874 21.8119 6.37784 21.7991C6.37694 21.7863 6.37288 21.7739 6.36604 21.7631C6.35919 21.7522 6.34976 21.7433 6.3386 21.7369L2.8114 19.5081C2.79909 19.4997 2.78464 19.4949 2.76974 19.4943C2.75483 19.4937 2.74008 19.4973 2.72714 19.5047C2.7142 19.5122 2.70359 19.5231 2.69658 19.5363C2.68956 19.5494 2.68641 19.5643 2.68746 19.5792L2.67839 25.9118V28H0.0683594V20.9787L0.0738734 17.7131C0.0744395 17.3249 0.209899 16.949 0.457032 16.6498C0.704166 16.3506 1.04758 16.1467 1.42845 16.0731C1.87403 16.0004 2.3306 16.0988 2.70673 16.3487L9.07808 20.3731C9.31641 20.5223 9.51276 20.7298 9.64858 20.9762C9.7844 21.2225 9.85519 21.4994 9.85425 21.7807Z" fill="white"/>
<path d="M35.8399 0H35.8397C35.2484 0 34.769 0.479687 34.769 1.07141V4.05576C34.769 4.64748 35.2484 5.12717 35.8397 5.12717H35.8399C36.4312 5.12717 36.9105 4.64748 36.9105 4.05576V1.07141C36.9105 0.479687 36.4312 0 35.8399 0Z" fill="white"/>
<path d="M6.51744 13.083L2.71648 7.5798V13.083H0.000976562V1.19269H2.71648V6.35652L6.34862 1.19269H9.43786L5.43251 6.98472L9.60782 13.083H6.51744Z" fill="white"/>
<path d="M14.3578 1.19269V13.083H11.6423V1.19269H14.3578Z" fill="white"/>
</g>
<defs>
<clipPath id="clip0">
<rect width="42" height="28" fill="white"/>
</clipPath>
</defs>
</svg>
